<svg version="1.1" id="development_icon" xmlns="http://www.w3.org/2000/svg" xmlns:xlink="http://www.w3.org/1999/xlink" x="0px" y="0px"
	 width="50px" height="50px" viewBox="0 0 67 67" enable-background="new 0 0 67 67" xml:space="preserve">
<g id="Layer_3">
	<g id="Development">
		<circle fill="#9e9e9e" cx="33.521" cy="33.574" r="33.26"/>
		<g>
			<g>
				<defs>
					<circle id="SVGID_1_" cx="33.521" cy="33.574" r="33.26"/>
				</defs>
				<clipPath id="SVGID_2_">
					<use xlink:href="#SVGID_1_"  overflow="visible"/>
				</clipPath>
			</g>
		</g>
		<g>
			<path fill="#FFFFFF" id="large-cog-paused" d="M26.154,25.215c-1.152,0.296-2.248,0.712-3.285,1.126c0.865,4.027-2.535,5.329-4.955,3.612
                c-0.922,0.652-1.614,1.541-1.902,2.785c2.535,1.716,1.268,6.275-2.189,5.861c0,1.303,0,2.604,0,3.91
                c3.688-0.357,4.494,4.204,2.189,6.157c0.635,0.947,0.922,2.252,2.189,2.547c2.189-1.835,5.531-0.178,4.667,3.613
                c1.038,0.414,2.132,0.83,3.284,1.124c0.463-3.198,5.244-3.198,5.763,0c1.153-0.294,2.247-0.71,3.286-1.124
                c-0.864-4.027,2.533-5.332,4.955-3.613c0.922-0.65,1.61-1.541,1.9-2.784c-2.535-1.716-1.267-6.275,2.19-5.862
                c0-1.302,0-2.605,0-3.908c-3.687,0.298-4.495-4.203-2.19-6.159c-0.635-0.948-0.865-2.251-2.189-2.487
                c-2.191,1.836-5.53,0.178-4.666-3.614c-1.039-0.413-2.133-0.829-3.286-1.124C31.109,28.531,26.961,28.531,26.154,25.215z
                 M34.74,40.613c0,3.196-2.536,5.804-5.705,5.804c-3.17,0-5.705-2.607-5.705-5.804c0-3.197,2.535-5.805,5.705-5.805
                C32.205,34.751,34.74,37.356,34.74,40.613z"/>
            <g>
                <path fill="#FFFFFF" id="small-cog-paused" d="M40.646,11.596c-0.627,0.114-1.199,0.23-1.769,0.404c0.227,2.135-1.655,2.596-2.795,1.559
                    c-0.514,0.288-0.914,0.692-1.199,1.327c1.199,1.038,0.285,3.29-1.484,2.886c-0.057,0.691-0.17,1.326-0.229,2.019
                    c1.94,0.058,2.111,2.481,0.801,3.29c0.284,0.52,0.342,1.213,0.969,1.442c1.256-0.806,2.91,0.232,2.225,2.136
                    c0.514,0.287,1.083,0.577,1.654,0.75c0.457-1.615,2.969-1.327,3.025,0.346c0.629-0.115,1.199-0.23,1.77-0.403
                    c-0.228-2.135,1.654-2.598,2.795-1.558c0.514-0.29,0.914-0.693,1.199-1.328c-1.199-1.038-0.285-3.29,1.484-2.886
                    c0.057-0.692,0.173-1.327,0.228-2.02c-1.939-0.057-2.111-2.48-0.799-3.29c-0.284-0.519-0.343-1.212-0.97-1.442
                    c-1.254,0.807-2.91-0.231-2.225-2.135c-0.514-0.289-1.084-0.52-1.655-0.75C43.043,13.616,40.876,13.385,40.646,11.596z
                     M44.242,20.078c-0.172,1.674-1.713,2.827-3.366,2.655c-1.655-0.173-2.853-1.674-2.626-3.348c0.171-1.673,1.712-2.827,3.367-2.654
                    C43.214,16.905,44.413,18.405,44.242,20.078z"/>
            </g>
		</g>
	</g>
</g>
</svg>
